<svg xmlns="http://www.w3.org/2000/svg" width="512" height="512" viewBox="0 0 512 512">
  <rect width="512" height="512" rx="64" fill="#6366f1"/>
  <g fill="none" stroke="#fff" stroke-width="24" stroke-linecap="round" stroke-linejoin="round">
    <path d="M120 160h272a32 32 0 0 1 32 32v192a32 32 0 0 1-32 32H120a32 32 0 0 1-32-32V192a32 32 0 0 1 32-32z"/>
    <path d="M168 160V112a16 16 0 0 1 16-16h144a16 16 0 0 1 16 16v48"/>
    <path d="M160 272h192"/>
    <path d="M160 336h128"/>
  </g>
</svg>
